<svg version="1.2" xmlns="http://www.w3.org/2000/svg" viewBox="0 0 23 17" width="16" height="16"><style>.a{fill:#fff}</style><path class="a" d="m0.5 1.4c3.1 2.6 8.7 7.2 10.3 8.7q0.3 0.3 0.7 0.3 0.4 0 0.7-0.3c1.6-1.5 7.2-6.1 10.3-8.7 0.2-0.2 0.2-0.5 0.1-0.7-0.4-0.4-0.9-0.7-1.5-0.7h-19.2c-0.6 0-1.1 0.3-1.5 0.7-0.1 0.2-0.1 0.5 0.1 0.7zm22.2 1.4c-0.1-0.1-0.3 0-0.5 0.1-3.5 2.9-8 6.6-9.4 7.9-0.8 0.7-1.8 0.7-2.6 0-1.5-1.3-6.6-5.5-9.4-7.9-0.2-0.1-0.4-0.2-0.5-0.1-0.2 0.1-0.3 0.3-0.3 0.4v11.9c0 1.1 0.9 1.9 1.9 1.9h19.2c1 0 1.9-0.8 1.9-1.9v-11.9c0-0.1-0.1-0.3-0.3-0.4z"/></svg>