<svg version="1.2" xmlns="http://www.w3.org/2000/svg" viewBox="0 0 23 20" width="23" height="20"><style>.a{fill:#fff}</style><path fill-rule="evenodd" class="a" d="m22.3 12.5c0.3 0.7 0.7 1.8 0.7 3 0 1.2-0.4 2.3-0.7 3-0.4 0.9-1.2 1.5-2.2 1.5 0 0-2.8 0-2.8 0-1 0-1.9-0.6-2.3-1.5q-0.2-0.5-0.3-1.2c-0.1-0.5 0.2-0.9 0.6-1.1 0.5-0.1 1 0.2 1.1 0.7q0.1 0.5 0.3 0.9c0.1 0.2 0.3 0.4 0.6 0.4 0 0 2.8 0 2.8 0 0.3 0 0.5-0.1 0.6-0.4 0.2-0.5 0.5-1.4 0.5-2.3 0-0.9-0.3-1.8-0.5-2.3-0.1-0.2-0.3-0.4-0.6-0.4 0 0-2.8 0-2.8 0-0.3 0-0.5 0.2-0.6 0.4-0.1 0.3-0.2 0.6-0.3 0.9-0.1 0.4-0.4 0.7-0.8 0.7h-6.2l-0.7 0.7 0.7 0.7h2.5c0.5 0 0.9 0.4 0.9 0.9 0 0.5-0.4 0.9-0.9 0.9h-2.9q-0.3 0-0.6-0.3l-1.6-1.6c-0.3-0.3-0.3-0.9 0-1.2l1.6-1.6q0.2-0.3 0.6-0.3h5.9q0.1-0.3 0.1-0.4c0.4-1 1.3-1.6 2.3-1.6 0 0 2.8 0 2.8 0 1 0 1.8 0.6 2.2 1.5zm-2.9 2.1c0.5 0 0.9 0.4 0.9 0.9 0 0.5-0.4 0.9-0.9 0.9-0.5 0-0.9-0.4-0.9-0.9 0-0.5 0.4-0.9 0.9-0.9zm3.6-11v5c0 0.5-0.4 0.9-0.9 0.9-0.5 0-0.9-0.4-0.9-0.9v-4.8l-7.8 4.9c-0.6 0.3-1.2 0.5-1.9 0.5-0.7 0-1.3-0.2-1.9-0.5l-7.8-4.9v10.2c0 1 0.8 1.8 1.8 1.8h0.3c0.5 0 0.9 0.4 0.9 0.9 0 0.5-0.4 0.9-0.9 0.9h-0.3c-2 0-3.6-1.6-3.6-3.6v-10.4c0-2 1.6-3.6 3.6-3.6h15.8c2 0 3.6 1.6 3.6 3.6zm-2.5-1.5q-0.5-0.3-1.1-0.3h-15.8q-0.6 0-1.1 0.3l8.1 5c0.5 0.4 1.3 0.4 1.8 0z"/></svg>